<svg xmlns="http://www.w3.org/2000/svg" xmlns:xlink="http://www.w3.org/1999/xlink" width="205.933" height="62.104" viewBox="0 0 205.933 62.104">
  <defs>
    <radialGradient id="radial-gradient" cx="0.393" cy="-0.106" r="0.964" gradientTransform="translate(-0.448) scale(1.896 1)" gradientUnits="objectBoundingBox">
      <stop offset="0" stop-color="#ff4713"/>
      <stop offset="0.151" stop-color="#fc4714"/>
      <stop offset="0.257" stop-color="#f34617"/>
      <stop offset="0.35" stop-color="#e3451c"/>
      <stop offset="0.435" stop-color="#cd4423"/>
      <stop offset="0.514" stop-color="#b1422c"/>
      <stop offset="0.59" stop-color="#8e4037"/>
      <stop offset="0.663" stop-color="#643d44"/>
      <stop offset="0.731" stop-color="#353a53"/>
      <stop offset="0.797" stop-color="#003764"/>
    </radialGradient>
  </defs>
  <g id="smart-play-logo" transform="translate(-14007 20212)">
    <g id="Group_114963" data-name="Group 114963" transform="translate(14141.739 -20207.25)">
      <path id="Path_183543" data-name="Path 183543" d="M334.61,53.637c0,.956-.128,1.02-3.568,1.02-3,0-3.187,0-3.187-.892V11.133c0-.956.318-1.019,3.187-1.019,3.186,0,3.568.064,3.568,1.083Z" transform="translate(-306.571 -10.047)" fill="#fc4714"/>
      <path id="Path_183544" data-name="Path 183544" d="M366.938,69.219c0,.765-.51.637-2.868.637-2.995,0-3.441,0-3.441-.956,0-.828.127-1.466-.382-1.147a4.539,4.539,0,0,1-3.7,2.1c-4.715,0-8.093-2.868-8.093-9.049V48.382c0-6.818,4.269-9.176,8.029-9.176a4.725,4.725,0,0,1,3.569,1.848c.446.574.51.128.51-1.019,0-.828.7-.892,3.441-.892,2.421,0,2.931,0,2.931.7Zm-6.691-10.387V50.039c0-1.975-.446-4.206-2.549-4.206-2.039,0-2.548,2.231-2.548,4.206v8.793c0,2.421.446,4.269,2.548,4.269s2.549-1.848,2.549-4.269" transform="translate(-317.36 -25.247)" fill="#fc4714"/>
      <path id="Path_183545" data-name="Path 183545" d="M410.947,40.3c-3.7,15.166-6.882,27.974-10.259,41.611-.191.765-1.4.828-3.059.828-1.338,0-3.059-.064-2.868-1.019.956-4.524,1.593-7.52,2.485-11.916a7.377,7.377,0,0,0,.191-2.1,7.552,7.552,0,0,0-.191-1.975c-2.23-9.431-3.823-16.185-5.99-25.616-.128-.637,1.593-.7,3.314-.7s3.25.064,3.377.892c1.02,6.436,1.784,10.323,2.74,16.313,0,.191.064.637.382.637.382,0,.382-.446.446-.7,1.147-6.372,1.848-10,2.868-16.377.127-.7,1.593-.765,3.5-.765,1.465,0,3.25.191,3.059.892" transform="translate(-339.768 -25.387)" fill="#fc4714"/>
      <path id="Path_183546" data-name="Path 183546" d="M298.6,12.206a10.861,10.861,0,0,0-7.01-2.23h-6.5c-.765,0-1.275-.064-1.593.383a2.591,2.591,0,0,0-.319,1.593v11.7l9.079,14.019a10.018,10.018,0,0,0,6.279-2.334,9.513,9.513,0,0,0,3.186-7.392V19.6c0-3.186-.956-5.608-3.122-7.392m-4.524,18.1a2.893,2.893,0,0,1-2.294,1.019,8.167,8.167,0,0,1-1.4-.064c-.446-.191-.383-.7-.383-1.338V17.813a1.332,1.332,0,0,1,.192-.892c.255-.254.956-.254,1.72-.254a2.652,2.652,0,0,1,2.1.765,5.34,5.34,0,0,1,.828,3.5v6.118a4.6,4.6,0,0,1-.765,3.25" transform="translate(-283.174 -9.972)" fill="#fc4714"/>
      <path id="Path_183547" data-name="Path 183547" d="M283.174,48.628V73.422c0,1.4.383,1.4,3.25,1.4,2.931,0,3.568.064,3.568-1.019V59.913a4.96,4.96,0,0,1,.054-.778Z" transform="translate(-283.174 -30.214)" fill="#fc4714"/>
    </g>
    <g id="SmartB_Logo" transform="translate(14007 -20212)">
      <g id="Group_29111" data-name="Group 29111" transform="translate(28.176 21.284)">
        <path id="Path_12109" data-name="Path 12109" d="M115.572,102.176H110.36l-3.446-7.992c-.087-.232-.232-.637-.492-1.216-.232-.608-.492-1.274-.782-2.027s-.579-1.535-.9-2.346-.579-1.535-.84-2.2v5.357c0,.985,0,1.882-.029,2.751,0,.869-.029,1.535-.058,2.027l-.2,5.676H97.3L98.951,74h5.907l6.487,16.245c.2.492.463,1.187.782,2.114.319.9.637,1.882.927,2.925.319-1.014.608-2,.927-2.9s.579-1.622.811-2.143L121.306,74H127.1l1.68,28.176H122.32l-.261-5.676c-.029-.521-.058-1.216-.058-2.085s-.029-1.766-.029-2.722,0-1.911.029-2.867c0-.956.029-1.8.029-2.49-.232.579-.463,1.245-.724,1.969s-.521,1.448-.811,2.143-.55,1.332-.782,1.94c-.261.608-.434,1.071-.579,1.39Z" transform="translate(-97.3 -73.884)" fill="#003764"/>
        <path id="Path_12110" data-name="Path 12110" d="M223.914,74h6.11l10.338,28.176h-6.95L231.328,95.4h-9.122l-2.172,6.776H213.2Zm5.878,16.332c-.29-.811-.55-1.651-.84-2.519s-.579-1.737-.84-2.548c-.261-.84-.492-1.622-.724-2.346s-.405-1.361-.579-1.853c-.174.521-.347,1.158-.579,1.882s-.463,1.506-.724,2.346-.55,1.68-.84,2.548-.579,1.68-.84,2.49Z" transform="translate(-179.638 -73.884)" fill="#003764"/>
        <path id="Path_12111" data-name="Path 12111" d="M315.529,73.716c.261,0,.753,0,1.506-.029.753,0,1.593-.029,2.49-.029s1.8,0,2.664-.029c.869,0,1.535-.029,2-.029,3.562,0,6.226.7,7.992,2.027a8.119,8.119,0,0,1,1.361,10.425,8.445,8.445,0,0,1-3.5,2.693,7.547,7.547,0,0,1,2.2,1.882,16.83,16.83,0,0,1,1.824,2.809c.579,1.1,1.158,2.346,1.766,3.765s1.245,2.983,1.969,4.662h-7.355c-.9-1.94-1.651-3.649-2.259-5.154-.608-1.477-1.187-2.722-1.709-3.736a9.155,9.155,0,0,0-1.564-2.288,2.517,2.517,0,0,0-1.853-.782h-.695v11.96H315.5V73.716Zm6.863,11.96h1.737a3.313,3.313,0,0,0,3.5-3.707,6.072,6.072,0,0,0-.174-1.477,3.013,3.013,0,0,0-.608-1.216,2.928,2.928,0,0,0-1.158-.84,4.584,4.584,0,0,0-1.766-.319h-1.535Z" transform="translate(-252.314 -73.6)" fill="#003764"/>
        <path id="Path_12112" data-name="Path 12112" d="M407.468,74l-.029,5.039h-6.486v23.137h-6.863V79.039H387.4V74Z" transform="translate(-303.393 -73.884)" fill="#003764"/>
      </g>
      <path id="Path_12113" data-name="Path 12113" d="M19.315,13.913l-.116.637-.087.376-.145.405-.319.637,1.824,2.722,2.23,3.562.2-.376.174-.347.174-.347.145-.29.145-.261.174-.319.261-.492.2-.405.232-.521.261-.579.174-.405.29-.695.116-.347.145-.405.145-.405.029-.145L25.6,15.8l.029-.087.029-.116.029-.116.058-.174.058-.174.029-.174.029-.145.029-.145.029-.145.029-.174.029-.2L26,13.971l.029-.174.029-.232V12.06l-.029-.29L26,11.538l-.029-.174-.029-.232-.029-.174-.029-.2-.116-.29-.058-.29-.058-.29L25.57,9.6l-.058-.261-.058-.232-.087-.29L25.251,8.5l-.087-.261-.116-.261-.087-.2-.087-.232-.145-.29-.2-.376-.174-.29L24.18,6.3l-.232-.347-.2-.29-.145-.2-.116-.174L23.34,5.11l-.116-.145-.116-.145-.145-.174-.145-.174L22.674,4.3l-.145-.174-.145-.145-.145-.145-.2-.2-.2-.2-.174-.145-.174-.145-.2-.174-.2-.174-.232-.174-.2-.145-.174-.087L20.3,2.272l-.145-.087-.174-.145-.2-.116-.29-.174-.2-.116-.261-.116L18.794,1.4l-.261-.145-.2-.087-.261-.116L17.78.94l-.29-.116L17.259.737,17,.65l-.29-.087-.29-.087L16.158.419l-.2-.058L15.637.3l-.29-.058L15.116.216,14.884.187,14.624.158,14.392.129h-.2L13.958.1H12.336l-.261.029h-.2l-.232.029-.232.029-.261.029-.29.058-.2.029L10.4.361l-.232.058L9.933.476l-.2.058-.2.058L9.3.65,9.064.737l-.2.087-.2.087L8.4,1l-.2.087-.174.058-.2.058-.2.087-.2.087-.174.116-.261.145-.174.087-.261.145-.2.116-.2.145L5.878,2.3l-.261.2-.29.174-.261.2-.232.174-.2.174-.145.116-.232.232-.232.2-.145.145-.2.2-.174.2-.2.232L3.07,4.82l-.174.2-.174.232-.116.232-.145.2-.174.232-.174.261-.174.29-.116.2-.174.347-.174.347-.145.29-.116.29L1.1,8.208l-.087.2L.9,8.729l-.087.232-.116.347L.608,9.6l-.029.29-.058.232-.058.29-.058.261-.058.347-.029.29-.029.319-.029.29-.029.347v.232l-.029.29V13.1l.029.376.029.29.029.29.058.347.087.405.087.347.087.29.087.319.116.319.116.376.116.347.145.376.174.405.145.376.087.2.116.29.116.29.116.29.232.492.174.376.174.347.145.319.174.376.174.347.174.319.145.261.145.29.232.405.2.347.2.376.232.405.232.405.232.405.232.405.232.376.319.521.232.376.232.405.29.463.232.376.261.376.2.319.232.376.29.463.2.319.29.434.376.55.319.463L8.919,31l.232.347.2.29.2.29.2.319.29.405.261.376.232.319.319.463.2.29.232.347.232.347.232.319.29.405.29.405.29.405.261.347.261-.347.434-.55.666-.9.463-.608.463-.637L15.637,33l.579-.782.319-.434.087-.145.174.145.145.116.116.087.174.145.116.116.145.145.232.261.116.145.116.145.116.174.058.087.058.116.087.116.087.116.058.116.087.174.087.174.087.2.058.174.087.261.058.2.058.174.058.2.029.2.029.2.029.174.029.2.029.2v.985l-.029.2-.029.232-.029.2L19,38.064l-.058.174-.058.2-.058.2-.087.2-.087.2-.116.261-.087.2-.116.2-.174.29-.145.2-.2.29-.145.174-.174.2-.2.2-.261.261-.2.174-.232.2-.29.2-.29.174-.347.2-.2.087-.319.145-.319.116-.29.087-.232.058-.232.058-.261.029-.261.029-.2.029h-.927l-.2-.029-.232-.029-.2-.029-.174-.029-.2-.058-.145-.029-.145-.058-.2-.058-.29-.116-.232-.087-.232-.116-.2-.116-.2-.116-.232-.145-.29-.2-.29-.232-.29-.261-.2-.2-.2-.232-.2-.261-.174-.261-.232-.347-.2-.347-.174-.347L7.153,38.9l-.116-.319-.145-.463-.087-.434-.058-.405-.029-.347v-.753l.058-.463.058-.376.087-.405.087-.319.2-.55.116-.232.145-.261L.608,33.517l-.058.174-.058.174L.434,34.1l-.058.2-.058.232L.2,34.82l-.058.29-.029.232-.058.29-.029.261L0,36.152v.927l.029.319.029.376.029.261.029.29.029.29.058.319.058.376.087.405.116.405.174.521.116.319.145.376.145.319.116.261.116.29.116.232.087.2.087.145.116.2.116.2.174.29.145.232.174.232.145.232.174.232.145.174.232.261.232.261.2.232.2.2.2.2.376.347.376.319.261.2.261.2.319.232.319.232.261.174.347.2.29.174.29.145.347.174.405.2.376.174.29.116.29.116.319.116.376.116.347.087.405.087.434.087.434.087.492.058.434.058.29.029.319.029h1.071l.376-.029.29-.029.347-.029.405-.058.434-.087.521-.116.463-.116.376-.116.405-.145.434-.145.492-.2.405-.174.319-.145.405-.2.376-.232.347-.2.405-.261.463-.347.319-.261.434-.376.405-.376.463-.463.2-.232.145-.174.145-.174.2-.232.174-.232.2-.29.145-.2.145-.2.145-.232.087-.2.174-.29.116-.2.145-.261.145-.319.145-.319.174-.405.116-.29.116-.29.116-.347.087-.319.087-.29.116-.434.058-.319.058-.405.058-.347.029-.376.029-.347.029-.434v-.782l-.029-.319-.029-.347-.029-.29-.058-.376L25.6,34.7l-.087-.347-.145-.463-.145-.434-.145-.405-.145-.376-.116-.319-.2-.434-.29-.666-.319-.724-.29-.579-.232-.463L23.224,29l-.29-.579-.261-.492-.29-.55-.29-.55-.29-.55-.319-.521-.434-.724-.319-.55-.347-.55-.261-.434-.261-.434-.376-.608-.376-.608-.29-.434-.29-.434-.319-.492-.405-.724-.376-.55-.376-.579-.319-.492-.376-.55-.376-.55-.29-.405-.405-.579L15,15.65l-.261-.376-.261-.376-.347-.492-.261-.347-.347-.463-.434-.579-.145.2-.29.347-.261.347-.347.434-.376.492-.261.347-.376.492-.319.521-.319.463-.434.608-.376.463-.2.29-.116-.058-.116-.087-.116-.087-.347-.29-.232-.261L8.2,16.924l-.2-.261-.232-.376-.145-.232L7.5,15.8l-.116-.232-.145-.347-.116-.347-.116-.405-.058-.376-.058-.319-.029-.434v-.55l.029-.347.029-.29.029-.319.058-.261.058-.261.087-.261.087-.232.087-.261.116-.29.174-.319L7.79,9.6l.174-.232.2-.29.29-.319.29-.29.261-.232.29-.232.29-.2L9.9,7.6l.376-.232.376-.174.29-.116.261-.087.319-.087.319-.087.463-.058.463-.029h.463l.463.029.376.058.521.116.521.174.405.145.579.261.492.319.434.319.376.319.261.261.261.29.232.29.2.29.2.29.116.232.174.376.145.347.145.376.116.376.087.463.058.405.029.434v.492Z" transform="translate(0 -0.1)" fill="url(#radial-gradient)"/>
    </g>
  </g>
</svg>
